<svg xmlns="http://www.w3.org/2000/svg" viewBox="0 0 192 192">
  <!-- Fundo com gradiente Warm Beige -->
  <defs>
    <linearGradient id="warmBeigeGradient192" x1="0%" y1="0%" x2="100%" y2="100%">
      <stop offset="0%" style="stop-color:hsl(40 40% 88%);stop-opacity:1" />
      <stop offset="100%" style="stop-color:hsl(35 35% 80%);stop-opacity:1" />
    </linearGradient>
  </defs>

  <!-- Fundo arredondado -->
  <rect width="192" height="192" rx="45" fill="url(#warmBeigeGradient192)"/>

  <!-- Passarinho minimalista gordinho de perfil com coroa de princesa - escala 192/512 -->
  <g transform="translate(96, 82.5)">
    <!-- Corpo + cabeça em traçado único -->
    <path d="M -22.5,-7.5
             Q -26.25,-15 -20.625,-20.625
             Q -15,-24.375 -9.375,-22.5
             L -3.75,-20.625
             L 0,-18.75
             Q 5.625,-16.875 13.125,-11.25
             Q 18.75,-3.75 18.75,3.75
             Q 18,13.125 13.125,18.75
             Q 7.5,22.5 0,22.5
             Q -7.5,21.75 -13.125,16.875
             Q -18.75,11.25 -21.75,3.75
             Q -23.25,0 -22.5,-7.5 Z"
             fill="hsl(30 34% 49%)"
             opacity="0.9"/>

    <!-- Olhinho simples -->
    <circle cx="-13.125" cy="-13.125" r="1.875" fill="hsl(28 16% 25%)"/>

    <!-- Biquinho -->
    <path d="M -22.5,-10.5 L -28.125,-8.25 L -22.5,-6 Z" fill="hsl(35 60% 55%)"/>

    <!-- Coroa de princesa -->
    <g transform="translate(-9.375, -22.5)">
      <!-- Base da coroa -->
      <path d="M -5.625,0 L -3.75,-4.5 L -1.875,-1.875 L 0,-5.625 L 1.875,-1.875 L 3.75,-4.5 L 5.625,0 Z"
            fill="hsl(45 90% 60%)"
            stroke="hsl(45 70% 50%)"
            stroke-width="0.6"/>
      <!-- Joias da coroa -->
      <circle cx="-3.75" cy="-3.75" r="0.9" fill="hsl(340 80% 60%)"/>
      <circle cx="0" cy="-4.875" r="0.9" fill="hsl(200 80% 60%)"/>
      <circle cx="3.75" cy="-3.75" r="0.9" fill="hsl(280 80% 60%)"/>
    </g>
  </g>

  <!-- Texto "Nana" -->
  <text
    x="96"
    y="146"
    font-size="45"
    font-weight="700"
    text-anchor="middle"
    font-family="Georgia, 'Times New Roman', serif"
    fill="hsl(28 16% 25%)"
    letter-spacing="1">Nana</text>
</svg>
